<?xml version="1.0" standalone="no"?>
<!DOCTYPE svg PUBLIC "-//W3C//DTD SVG 20010904//EN"
 "http://www.w3.org/TR/2001/REC-SVG-20010904/DTD/svg10.dtd">
<svg version="1.0" xmlns="http://www.w3.org/2000/svg"
 width="720.000000pt" height="405.000000pt" viewBox="0 0 720.000000 405.000000"
 preserveAspectRatio="xMidYMid meet">

<g transform="translate(0.000000,405.000000) scale(0.100000,-0.100000)"
fill="#55565B" stroke="none">
<path d="M0 2025 l0 -2025 3600 0 3600 0 0 2025 0 2025 -3600 0 -3600 0 0
-2025z m2769 670 c16 -8 31 -22 35 -30 3 -9 6 -143 6 -298 0 -318 -2 -326 -79
-409 -52 -58 -118 -89 -196 -96 -58 -4 -65 -2 -89 21 -31 31 -33 65 -6 100 16
20 33 27 76 33 38 4 65 15 86 32 55 46 58 67 58 346 0 140 3 262 6 271 4 10
21 23 38 31 39 17 32 17 65 -1z m1151 -7 c50 -14 109 -57 147 -106 50 -66 63
-125 63 -289 0 -139 -1 -145 -25 -168 -29 -30 -74 -32 -106 -6 -23 18 -24 26
-29 178 -5 171 -10 187 -62 224 -43 31 -125 33 -164 3 -64 -47 -69 -62 -73
-230 -3 -151 -4 -155 -28 -174 -33 -26 -64 -25 -97 1 l-26 20 0 158 c0 183 10
226 72 296 89 101 196 131 328 93z m-616 -22 c31 -15 71 -46 90 -68 57 -67 70
-120 71 -296 l0 -154 -28 -24 c-36 -31 -71 -31 -102 1 -24 23 -25 29 -25 159
0 156 -12 198 -65 234 -46 32 -101 38 -145 15 -133 -69 -91 -273 56 -273 58 0
99 -17 113 -46 17 -38 13 -63 -14 -89 -20 -21 -34 -25 -84 -25 -212 0 -356
194 -296 397 25 84 108 162 205 194 50 17 165 4 224 -25z m1273 19 c95 -28
193 -145 193 -231 0 -37 -36 -94 -70 -111 -16 -8 -56 -12 -110 -11 -79 3 -85
5 -99 29 -30 54 5 94 88 101 l34 3 -26 31 c-36 42 -101 61 -154 44 -68 -22
-103 -69 -103 -140 0 -96 66 -145 203 -149 27 -1 57 -38 57 -71 0 -20 -9 -40
-26 -57 -24 -24 -31 -25 -97 -21 -123 8 -216 68 -266 171 -116 239 113 490
376 412z m-1582 -868 c11 -9 14 -16 7 -21 -6 -3 -13 -2 -17 4 -8 13 -51 13
-75 0 -41 -22 -29 -105 17 -117 14 -3 35 0 49 7 13 8 27 10 31 6 13 -13 -29
-36 -63 -36 -45 0 -74 27 -81 77 -5 35 -2 45 20 67 29 29 81 35 112 13z m200
-12 c33 -32 33 -83 0 -119 -52 -56 -145 -19 -145 59 0 49 36 85 85 85 25 0 44
-8 60 -25z m127 -30 c11 -27 23 -54 28 -58 4 -5 18 19 31 52 16 42 29 61 39
59 20 -4 22 -159 3 -165 -9 -3 -13 12 -14 54 l-1 58 -28 -60 -28 -60 -30 65
-31 65 0 -62 c-1 -35 -5 -63 -11 -63 -6 0 -10 35 -10 86 0 73 2 85 16 82 9 -2
25 -25 36 -53z m198 -31 c0 -64 -3 -85 -12 -82 -8 3 -14 29 -16 73 -3 72 1 95
18 95 6 0 10 -34 10 -86z m125 24 l40 -63 3 55 c5 93 22 83 22 -13 0 -50 -4
-87 -10 -87 -5 0 -30 30 -55 67 l-45 68 0 -68 c0 -38 -4 -67 -10 -67 -6 0 -10
35 -10 85 0 61 3 85 13 85 6 0 30 -28 52 -62z m249 56 c32 -12 15 -24 -24 -18
-50 8 -80 -14 -80 -59 0 -41 26 -67 67 -67 29 0 33 3 33 25 0 18 -5 25 -20 25
-11 0 -20 5 -20 10 0 6 13 10 29 10 26 0 29 -4 33 -36 3 -26 0 -38 -13 -45
-57 -30 -133 12 -133 74 0 65 64 106 128 81z m240 0 c29 -11 17 -23 -21 -21
-51 3 -52 -26 -3 -51 38 -18 50 -52 30 -78 -21 -24 -90 -15 -90 12 0 17 5 17
29 2 24 -15 53 -3 49 19 -2 10 -20 26 -41 36 -74 34 -30 111 47 81z m191 0
c19 -8 45 -55 45 -83 0 -11 -12 -33 -26 -50 -58 -69 -154 -20 -144 74 5 49 70
80 125 59z m234 -17 c33 -36 32 -94 -3 -124 -58 -49 -140 -13 -140 62 0 75 92
115 143 62z m146 -39 l40 -63 3 63 c2 44 7 62 15 59 16 -5 17 -159 0 -164 -6
-2 -31 25 -55 61 l-43 65 -3 -64 c-4 -96 -22 -79 -22 20 0 61 3 85 13 85 6 0
30 -28 52 -62z"/>
<path d="M3086 1788 c-45 -64 27 -140 89 -94 26 19 26 83 0 102 -29 21 -72 17
-89 -8z"/>
<path d="M4237 1792 c-38 -42 -10 -112 45 -112 53 0 81 76 42 114 -21 22 -67
20 -87 -2z"/>
<path d="M4455 1790 c-37 -41 -9 -110 45 -110 35 0 60 28 60 67 0 56 -67 85
-105 43z"/>
</g>
</svg>
